# xmcd
#
# Track frame offsets:
#	150
#	19959
#	43453
#	62947
#	80593
#	100557
#	116546
#	136872
#	153849
#	171702
#	189942
#	206928
#	228060
#	247921
#	269269
#	288635
#	301116
#	315569
#
# Disc length: 4409 seconds
#
# Revision: 20
# Processed by: cddbd v1.5.2PL0 Copyright (c) Steve Scherf et al.
# Submitted via: Jack! The Knife 20 Magnifico
#
DISCID=fa113712
DTITLE=Samuele Bersani - Che Vita!
DYEAR=2002
DGENRE=Pop
TTITLE0=Che Vita!
TTITLE1=Il Mostro
TTITLE2=Chicco E Spillo
TTITLE3=Freak
TTITLE4=Spaccacuore
TTITLE5=Cosa Vuoi Da Me
TTITLE6=Cado Giù
TTITLE7=Barcarola Albanese
TTITLE8=Giudizi Universali
TTITLE9=Coccodrilli
TTITLE10=Braccio Di Ferro
TTITLE11=Crazy Boy
TTITLE12=Replay
TTITLE13=Il Pescatore Di Asterischi
TTITLE14=Senza Titoli
TTITLE15=Chiedimi Se Sono Felice
TTITLE16=Milingo
TTITLE17=Le Mie Parole
EXTD=
EXTT0=Bersani, Guarino
EXTT1=Samuele Bersani
EXTT2=Samuele Bersani
EXTT3=Samuele Bersani
EXTT4=Bersani, D'Onghia
EXTT5=Bersani, Scott
EXTT6=Bersani, D'Onghia
EXTT7=Samuele Bersani
EXTT8=Bersani, D'Onghia
EXTT9=Bersani, D'Onghia
EXTT10=Bersani, D'Onghia
EXTT11=Bersani, Fabrizi
EXTT12=Bersani, D'Onghia
EXTT13=Bersani, D'Onghia
EXTT14=Samuele Bersani
EXTT15=Samuele Bersani
EXTT16=Bersani, Guarino
EXTT17=Gino De Crescenzo "Pacifico"
PLAYORDER=
